<?xml version="1.0" standalone="no"?>
<!DOCTYPE svg PUBLIC "-//W3C//DTD SVG 1.1//EN" "http://www.w3.org/Graphics/SVG/1.1/DTD/svg11.dtd" >
<svg xmlns="http://www.w3.org/2000/svg" xmlns:xlink="http://www.w3.org/1999/xlink" version="1.1">
<metadata>
Created by FontForge 20161003 at Sat Sep 23 20:34:49 2017
 By www-data
AENIGMA FONTS   [e-mail]  kentpw@norwich.net
</metadata>
<defs>
<font id="Qbicle1BRKMK" horiz-adv-x="1058" >
  <font-face 
    font-family="Qbicle1BRKMK"
    font-weight="500"
    font-stretch="normal"
    units-per-em="1000"
    panose-1="2 0 6 5 2 0 0 2 0 4"
    ascent="800"
    descent="-200"
    x-height="800"
    cap-height="800"
    bbox="30 -199 1029 800"
    underline-thickness="20"
    underline-position="-163"
    unicode-range="U+0020-E002"
  />
<missing-glyph horiz-adv-x="1000" 
 />
    <glyph glyph-name=".notdef" horiz-adv-x="1000" 
 />
    <glyph glyph-name=".null" horiz-adv-x="0" 
 />
    <glyph glyph-name="nonmarkingreturn" unicode="&#xe000;" horiz-adv-x="500" 
 />
    <glyph glyph-name="space" unicode=" " horiz-adv-x="333" 
 />
    <glyph glyph-name="exclam" unicode="!" horiz-adv-x="1059" 
d="M315 103l-89 -44v-107l107 -54l393 196l197 -97l106 52v501l-500 250l-106 -53v-197l-197 -98v-305zM931 18v473l82 41v-473zM914 491v-473l-180 90v98l-88 44l88 44v287zM718 188v-80l-377 -187v79zM718 581v-276l-377 -189v277zM253 54l375 187l80 -40l-375 -187z
M439 558v170l170 -85zM253 447l393 196l-196 99l79 40l473 -237l-79 -40l-197 98l-393 -196z" />
    <glyph glyph-name="quotedbl" unicode="&#x22;" horiz-adv-x="1059" 
d="M128 501v-207l107 -53l90 45v-90l106 -53l98 49l394 -195l106 52v501l-500 250l-106 -53v-98zM636 558v72l72 -36zM620 630v-80l-295 -147v-98l-82 -41v178zM816 354l-377 -189v179l377 188v-178zM931 18v473l82 41v-473zM914 491v-473l-366 183l284 143v188zM439 657v71
l72 -35zM155 496l393 197l-98 49l79 40l473 -237l-79 -40l-99 49l-393 -196l-80 40l393 196l-116 59l-393 -197z" />
    <glyph glyph-name="numbersign" unicode="#" horiz-adv-x="1059" 
d="M118 300l-88 -45v-108l98 -49v-98l107 -53l90 45v-90l106 -53l393 196l99 -48l106 52v501l-500 250l-106 -53v-98l-393 -197v-108zM636 558v72l72 -36zM620 630v-80l-377 -188v80zM325 313l-72 36l72 36v-72zM914 90v-72l-71 36zM931 116l-393 -195v79l393 196v117
l-393 -197v80l393 197v98l82 41v-473l-82 -41v98zM439 -128v71l72 -36zM439 67v72l72 -36zM450 250l374 188l80 -40l-375 -188zM450 54l374 187l80 -40l-375 -187zM914 286v-71l-71 35zM914 491v-80l-82 41v80zM816 532v-80l-377 -188v80zM243 -30v71l72 -36zM128 286v-71
l-72 35zM439 657v71l72 -35zM155 496l393 197l-98 49l79 40l473 -237l-79 -40l-99 49l-393 -196l-80 40l393 196l-116 59l-393 -197zM56 447l72 36v-72zM315 201l-72 -36v72zM253 152l72 36v-72z" />
    <glyph glyph-name="dollar" unicode="$" 
d="M118 202l-88 -44v-108l196 -98v-98l107 -53l98 49l98 -49l499 249v500l-196 99v98l-107 53l-98 -49l-98 49l-499 -250v-304zM136 193l287 -143v-79l-367 182zM341 -105l71 -36l-71 -36v72zM144 313v72l72 -36zM155 300l79 40l295 -147l294 147l80 -40l-374 -187zM913 385
v-72l-71 36zM537 -177v276l393 196v116l-393 -196v80l475 237v-472zM1001 545l-472 -236l-178 89l472 236zM815 729v-80l-474 -238v80zM253 545l472 237l80 -40l-472 -237zM529 782l80 -40l-383 -192v-90l-170 85z" />
    <glyph glyph-name="percent" unicode="%" 
d="M216 251l-186 -93v-108l106 -53l188 93v-187l205 -102l499 249v500l-499 250l-499 -250v-206zM635 630l170 -85l-170 -85v170zM619 630v-178l-376 -188v178zM913 385v-170l-169 85zM351 104l374 187l178 -89l-374 -187zM341 189l71 -36l-71 -36v72zM511 202l-72 -36v72z
M423 336v-72l-72 36zM324 287v-72l-71 36zM128 189v-72l-72 36zM144 19v71l72 -35zM243 68v72l71 -36zM537 -177v177l393 197v214l-393 -196v80l475 237v-472zM226 238v-72l-71 36zM529 782l472 -237l-472 -236l-80 40l393 196l-215 108l-393 -197l-178 89z" />
    <glyph glyph-name="ampersand" unicode="&#x26;" 
d="M30 550v-500l196 -98v-98l107 -53l98 49l98 -49l499 249v500l-196 99v98l-107 53l-98 -49l-98 49zM341 -105l71 -36l-71 -36v72zM144 117v72l72 -36zM155 104l79 40l99 -49l294 147l276 -138l-374 -187zM144 313v72l72 -36zM155 300l79 40l178 -89l-79 -40zM341 117v80
l90 45l80 -40zM913 385v-268l-268 134zM537 -177v80l393 196v312l-393 -196v80l475 237v-472zM1001 545l-472 -236l-178 89l472 236zM815 729v-80l-474 -238v80zM253 545l472 237l80 -40l-472 -237zM529 782l80 -40l-383 -192v-90l-170 85z" />
    <glyph glyph-name="quotesingle" unicode="'" horiz-adv-x="1059" 
d="M226 452v-207l107 -53l98 49l492 -244l106 52v501l-500 250l-106 -53v-197zM718 403l-377 -188v178l377 188v-178zM931 18v473l82 41v-473zM914 491v-473l-464 232l284 143v188zM439 558v170l170 -85zM253 447l393 196l-196 99l79 40l473 -237l-79 -40l-197 98l-393 -196
z" />
    <glyph glyph-name="parenleft" unicode="(" horiz-adv-x="1059" 
d="M128 403v-305l98 -49v-97l107 -54l393 196l197 -97l106 52v501l-500 250l-106 -53v-197zM931 18v473l82 41v-473zM914 491v-473l-180 90v98l-98 49v187l98 49v90zM718 188v-80l-377 -187v79zM243 335l90 -45l287 144v-179l-377 -188v268zM708 201l-375 -187l-80 40
l375 187zM718 581v-80l-377 -188v80zM529 782l473 -237l-79 -40l-197 98l-393 -196l-80 40l393 196l-196 99zM609 643l-170 -85v170zM155 398l71 36v-72z" />
    <glyph glyph-name="parenright" unicode=")" horiz-adv-x="1059" 
d="M325 294v-186l-99 -49v-107l107 -54l393 196l197 -97l106 52v501l-500 250l-106 -53v-197l-197 -98v-108zM931 18v473l82 41v-473zM914 491v-473l-170 85l88 44v305l-98 49v80zM816 157l-377 -187v275l377 189v-277zM325 90v-72l-72 36zM341 -79v71l72 -35zM351 300
l375 187l80 -40l-375 -187zM718 581v-80l-377 -188v80zM439 558v170l170 -85zM253 447l393 196l-196 99l79 40l473 -237l-79 -40l-197 98l-393 -196z" />
    <glyph glyph-name="asterisk" unicode="*" horiz-adv-x="1059" 
d="M118 398l-88 -44v-109l106 -53l90 45v-90l107 -53l90 45v-90l106 -52l197 97l197 -97l106 52v501l-500 250l-499 -250v-108zM538 679l71 -36l-71 -35v71zM521 679v-80l-376 -188v80zM226 362l-71 36l71 36v-72zM734 581l72 -36l-72 -36v72zM718 581v-80l-377 -188v80z
M914 385v-72l-71 36zM450 152l374 187l80 -39l-375 -188zM341 116v72l72 -36zM439 237l72 -36l-72 -36v72zM423 335v-71l-72 36zM145 215v71l71 -36zM931 215l-393 -197v80l393 196v117l-393 -196v79l475 238v-473l-82 -41v197zM914 188v-170l-170 85zM529 782l473 -237
l-473 -236l-79 40l393 196l-117 58l-393 -196l-80 40l393 196l-117 59l-393 -197l-80 40zM56 349l72 36v-72z" />
    <glyph glyph-name="plus" unicode="+" horiz-adv-x="1059" 
d="M30 354v-109l196 -98v-195l107 -54l393 196l197 -97l106 52v501l-500 250l-106 -53v-197zM914 188v-170l-170 85zM931 215l-393 -197v80l393 196v197l82 41v-473l-82 -41v197zM341 -79v169l170 -85zM351 201l375 188l178 -89l-375 -188zM914 491v-178l-180 90v178z
M718 581v-178l-377 -188v178zM529 782l473 -237l-79 -40l-197 98l-393 -196l-80 40l393 196l-196 99zM609 643l-170 -85v170zM56 349l170 85v-170z" />
    <glyph glyph-name="comma" unicode="," 
d="M226 60v-206l107 -53l490 244l99 -48l106 53v500l-499 250l-106 -53v-501l88 -44zM253 55l374 187l80 -40l-374 -187zM341 -177v177l376 189v-90l88 -44zM913 19l-180 90v98l-106 53l-98 -49l-90 45v473l474 -238v-472zM930 19v472l82 41v-472zM529 782l472 -237l-79 -40
l-473 237z" />
    <glyph glyph-name="hyphen" unicode="-" horiz-adv-x="1059" 
d="M30 354v-109l499 -248l197 97l197 -97l106 52v501l-500 250l-106 -53v-197zM914 491v-178l-475 237v178zM56 349l375 187l473 -236l-375 -188zM931 215l-393 -197v80l393 196v197l82 41v-473l-82 -41v197zM914 188v-170l-170 85zM529 782l473 -237l-79 -40l-473 237z" />
    <glyph glyph-name="period" unicode="." horiz-adv-x="1059" 
d="M226 59v-107l107 -54l393 196l197 -97l106 52v501l-500 250l-106 -53v-502l88 -44zM931 18v473l82 41v-473zM914 491v-473l-180 90v98l-106 54l-99 -50l-90 45v473zM718 188v-80l-377 -187v79zM253 54l375 187l80 -40l-375 -187zM529 782l473 -237l-79 -40l-473 237z" />
    <glyph glyph-name="slash" unicode="/" horiz-adv-x="1059" 
d="M30 157v-108l106 -52l393 195l394 -195l106 52v501l-500 250l-106 -53v-393zM145 18v72l71 -36zM243 67v72l72 -36zM341 116v72l72 -36zM439 165v72l72 -36zM914 385v-367l-366 183zM931 411l-393 -196v79l475 238v-473l-82 -41v393zM325 286v-71l-72 35zM226 237v-72
l-71 36zM128 188v-72l-72 36zM529 782l473 -237l-473 -236l-79 40l393 196l-393 197zM806 545l-367 -183v366zM351 300l72 35v-71z" />
    <glyph glyph-name="zero" unicode="0" 
d="M412 251l-268 -134v268zM155 104l268 134v-267zM30 550v-500l499 -249l499 249v500l-499 250zM537 -177v472l475 237v-472zM529 782l472 -237l-472 -236l-473 236z" />
    <glyph glyph-name="one" unicode="1" horiz-adv-x="1059" 
d="M128 501v-108l98 -49v-392l107 -54l393 196l197 -97l106 52v501l-500 250l-106 -53v-98zM931 18v473l82 41v-473zM914 491v-473l-180 90v473zM718 581v-473l-377 -187v472zM439 657v71l72 -35zM155 496l393 197l-98 49l79 40l473 -237l-79 -40l-197 98l-393 -196z" />
    <glyph glyph-name="two" unicode="2" 
d="M118 398l-88 -44v-304l499 -249l499 249v500l-499 250l-499 -250v-108zM144 117v72l72 -36zM155 104l79 40l295 -147l294 147l80 -40l-374 -187zM913 189v-72l-71 36zM537 -177v80l393 196v116l-393 -196v276l475 237v-472zM136 389l287 -143v-80l-367 183zM529 782
l472 -237l-472 -236l-473 236z" />
    <glyph glyph-name="three" unicode="3" 
d="M314 300l-284 -142v-108l499 -249l499 249v500l-499 250l-499 -250v-108zM537 -177v472l475 237v-472zM226 148l197 -98v-79l-367 182l170 85v-90zM333 291l90 -45v-80l-170 85zM529 782l472 -237l-472 -236l-473 236z" />
    <glyph glyph-name="four" unicode="4" 
d="M30 550v-304l393 -196v-196l106 -53l499 249v500l-499 250zM609 447l-186 -93v-188l-268 134l374 187zM805 545l-178 -89l-90 45v178zM521 679v-178l-377 -188v178zM537 -177v472l475 237v-472zM529 782l472 -237l-472 -236l-80 40l393 196l-313 157l-393 -197l-80 40z
" />
    <glyph glyph-name="five" unicode="5" 
d="M118 202l-88 -44v-108l499 -249l499 249v500l-499 250l-499 -250v-304zM144 313v72l72 -36zM155 300l79 40l295 -147l294 147l80 -40l-374 -187zM913 385v-72l-71 36zM537 -177v276l393 196v116l-393 -196v80l475 237v-472zM136 193l287 -143v-79l-367 182zM529 782
l472 -237l-472 -236l-473 236z" />
    <glyph glyph-name="six" unicode="6" 
d="M234 144l189 -94v-79l-268 133zM216 153l-72 -36v72zM30 550v-500l499 -249l499 249v500l-499 250zM144 313v72l72 -36zM155 300l79 40l295 -147l294 147l80 -40l-374 -187zM913 385v-72l-71 36zM537 -177v276l393 196v116l-393 -196v80l475 237v-472zM529 782l472 -237
l-472 -236l-473 236z" />
    <glyph glyph-name="seven" unicode="7" 
d="M30 550v-108l393 -196v-392l106 -53l499 249v500l-499 250zM537 -177v472l475 237v-472zM529 782l472 -237l-472 -236l-473 236z" />
    <glyph glyph-name="eight" unicode="8" 
d="M30 550v-500l499 -249l499 249v500l-499 250zM537 -177v472l475 237v-472zM529 782l472 -237l-472 -236l-473 236zM234 340l189 -94v-80l-268 134zM216 349l-72 -36v72zM234 144l189 -94v-79l-268 133zM216 153l-72 -36v72z" />
    <glyph glyph-name="nine" unicode="9" 
d="M234 340l189 -94v-80l-268 134zM216 349l-72 -36v72zM30 550v-304l393 -196v-196l106 -53l499 249v500l-499 250zM537 -177v472l475 237v-472zM529 782l472 -237l-472 -236l-473 236z" />
    <glyph glyph-name="colon" unicode=":" horiz-adv-x="1059" 
d="M511 201l-285 -142v-107l107 -54l393 196l197 -97l106 52v501l-500 250l-106 -53v-197l-197 -98v-108l107 -54l90 45v-90zM341 313v80l377 188v-80zM439 344l295 147v90l180 -90v-473l-180 90v98l-106 54l-99 -50l-90 45v89zM931 18v473l82 41v-473zM718 188v-80
l-377 -187v79zM253 54l375 187l80 -40l-375 -187zM439 558v170l170 -85zM253 447l393 196l-197 99l80 40l473 -237l-79 -40l-197 98l-393 -196z" />
    <glyph glyph-name="semicolon" unicode=";" 
d="M511 202l-285 -142v-206l107 -53l490 244l99 -48l106 53v500l-499 250l-106 -53v-197l-197 -98v-108l107 -53l90 45v-90zM253 55l374 187l80 -40l-374 -187zM341 -177v177l376 189v-90l88 -44zM913 19l-180 90v98l-106 53l-98 -49l-90 45v88l294 147v90l180 -90v-472z
M341 313v80l376 188v-80zM930 19v472l82 41v-472zM439 559v170l170 -85zM253 447l392 197l-196 98l80 40l472 -237l-79 -40l-197 99l-392 -197z" />
    <glyph glyph-name="less" unicode="&#x3c;" horiz-adv-x="1059" 
d="M30 354v-109l98 -49v-98l98 -49v-97l107 -54l393 196l197 -97l106 52v501l-500 250l-106 -53v-197zM931 18v473l82 41v-473zM914 491v-473l-180 90v98l-98 49v99l-88 44l186 93v90zM718 188v-80l-377 -187v79zM243 335l72 -35l-72 -36v71zM145 286l71 -36l-71 -35v71z
M155 201l374 188l80 -40l-374 -188zM708 201l-375 -187l-80 40l375 187zM243 67v80l377 188v-80zM718 581v-80l-377 -188v80zM128 385v-72l-72 36zM529 782l473 -237l-79 -40l-197 98l-393 -196l-80 40l393 196l-197 99zM609 643l-170 -85v170zM155 398l71 36v-72z" />
    <glyph glyph-name="equal" unicode="=" horiz-adv-x="1059" 
d="M118 300l-88 -45v-108l499 -249l295 147l99 -48l106 52v501l-500 250l-106 -53v-98l-393 -197v-108zM914 491v-80l-475 238v79zM56 447l375 187l473 -236l-375 -188zM136 290l393 -196l295 147l80 -40l-375 -187l-473 236zM914 286v-71l-71 35zM931 116l-393 -195v79
l393 196v117l-393 -197v80l393 197v98l82 41v-473l-82 -41v98zM914 90v-72l-71 36zM529 782l473 -237l-79 -40l-474 237z" />
    <glyph glyph-name="greater" unicode="&#x3e;" horiz-adv-x="1059" 
d="M413 152l-187 -93v-107l107 -54l393 196l197 -97l106 52v501l-500 250l-106 -53v-197l-197 -98v-108l99 -50v-98zM914 188v-170l-170 85zM931 215l-393 -197v80l393 196v197l82 41v-473l-82 -41v197zM351 300l375 187l80 -40l-375 -187zM904 300l-375 -188l-80 40
l375 187zM439 165v80l377 189v-80zM325 90v-72l-72 36zM341 -79v71l72 -35zM439 -30v71l72 -36zM914 491v-178l-82 41v98l-98 49v80zM718 581v-80l-377 -188v80zM423 139v-72l-72 36zM439 558v170l170 -85zM253 447l393 196l-197 99l80 40l473 -237l-79 -40l-197 98
l-393 -196z" />
    <glyph glyph-name="question" unicode="?" horiz-adv-x="1059" 
d="M30 550v-108l285 -142l-89 -45v-108l89 -44l-89 -44v-107l107 -54l393 196l197 -97l106 52v501l-500 250zM914 188v-170l-170 85zM931 215l-393 -197v276l475 238v-473l-82 -41v197zM333 94l80 -40l-80 -40l-80 40zM341 -79v79l90 45l80 -40zM333 290l90 -45v-80l-170 85
zM529 782l473 -237l-473 -236l-473 236z" />
    <glyph glyph-name="at" unicode="@" 
d="M351 5l72 36v-70zM412 55l-71 -36v71zM30 550v-500l106 -53l90 44v-89l303 -151l499 249v500l-499 250zM537 -177v472l475 237v-472zM226 256v-196l-82 -41v366l170 -85zM333 291l90 -45v-80l-170 85zM529 782l472 -237l-472 -236l-473 236z" />
    <glyph glyph-name="A" unicode="A" 
d="M1028 50v500l-499 250l-499 -250v-500l106 -53l197 98l90 -45v-196l106 -53zM1001 545l-472 -236l-473 236l473 237zM1012 60l-475 -237v472l475 237v-472zM423 166l-268 134l79 40l189 -94v-80zM216 349l-72 -36v72zM314 104l-170 -85v170z" />
    <glyph glyph-name="B" unicode="B" horiz-adv-x="1059" 
d="M30 550v-501l401 -200l393 196l99 -48l106 52v501l-500 250zM145 116v72l71 -36zM155 103l80 40l188 -94v-79zM439 -128v71l72 -36zM904 398l-375 -188l-79 40l374 188zM145 313v72l71 -36zM155 300l80 39l188 -94v-80zM914 491v-80l-82 41v80zM816 532v-80l-377 -188v80
zM931 116l-393 -195v275l393 197v98l82 41v-473l-82 -41v98zM914 90v-72l-71 36zM529 782l473 -237l-79 -40l-99 49l-393 -196l-375 187z" />
    <glyph glyph-name="C" unicode="C" 
d="M30 550v-500l499 -249l499 249v500l-499 250zM144 117v268l268 -134zM155 104l276 138l98 -49l98 49l276 -138l-374 -187zM913 385v-268l-268 134zM537 -177v80l393 196v312l-393 -196v80l475 237v-472zM529 782l472 -237l-472 -236l-473 236z" />
    <glyph glyph-name="D" unicode="D" horiz-adv-x="1059" 
d="M30 550v-501l401 -200l393 196l99 -48l106 52v501l-500 250zM145 116v269l268 -135zM155 103l268 134v-267zM439 -128v71l72 -36zM904 398l-375 -188l-79 40l374 188zM914 491v-80l-82 41v80zM816 532v-80l-377 -188v80zM931 116l-393 -195v275l393 197v98l82 41v-473
l-82 -41v98zM914 90v-72l-71 36zM529 782l473 -237l-79 -40l-99 49l-393 -196l-375 187z" />
    <glyph glyph-name="E" unicode="E" 
d="M30 550v-500l499 -249l499 249v500l-499 250zM144 117v72l72 -36zM155 104l79 40l99 -49l294 147l276 -138l-374 -187zM144 313v72l72 -36zM155 300l79 40l178 -89l-79 -40zM341 117v80l90 45l80 -40zM913 385v-268l-268 134zM537 -177v80l393 196v312l-393 -196v80
l475 237v-472zM529 782l472 -237l-472 -236l-473 236z" />
    <glyph glyph-name="F" unicode="F" horiz-adv-x="1059" 
d="M30 550v-501l106 -52l393 195l394 -195l106 52v501l-500 250zM914 385v-367l-366 183zM931 411l-393 -196v79l475 238v-473l-82 -41v393zM145 18v170l170 -85zM413 250l-80 -40l-178 90l80 39zM145 313v72l71 -36zM511 201l-170 -85v80l90 45zM529 782l473 -237
l-473 -236l-473 236z" />
    <glyph glyph-name="G" unicode="G" 
d="M30 550v-500l499 -249l499 249v500l-499 250zM423 50v-79l-268 133l79 40zM144 117v268l170 -85l-88 -44v-98zM253 251l80 40l196 -98l294 147l80 -40l-374 -187zM913 385v-72l-71 36zM537 -177v276l393 196v116l-393 -196v80l475 237v-472zM529 782l472 -237l-472 -236
l-473 236z" />
    <glyph glyph-name="H" unicode="H" 
d="M30 550v-500l106 -53l197 98l90 -45v-196l106 -53l499 249v500l-499 250zM144 189l170 -85l-170 -85v170zM609 447l-186 -93v-188l-268 134l374 187zM805 545l-178 -89l-90 45v178zM521 679v-178l-377 -188v178zM537 -177v472l475 237v-472zM529 782l472 -237l-472 -236
l-80 40l393 196l-313 157l-393 -197l-80 40z" />
    <glyph glyph-name="I" unicode="I" 
d="M226 256l-196 -98v-108l499 -249l499 249v500l-499 250l-499 -250v-108l196 -98v-88zM341 19v268l188 -94l188 94v-80zM913 385v-268l-180 90v88zM351 5l374 188l178 -89l-374 -187zM537 -177v80l393 196v312l-393 -196v80l475 237v-472zM226 238v-170l-170 85zM529 782
l472 -237l-472 -236l-473 236z" />
    <glyph glyph-name="J" unicode="J" 
d="M30 256v-206l499 -249l499 249v500l-499 250l-106 -53v-295zM805 545l-276 -138l-90 45v277zM56 251l375 187l80 -40l-375 -187zM537 -177v472l475 237v-472zM423 238v-267l-268 133zM423 336v-80l-279 -139v80zM529 782l472 -237l-472 -236l-80 40l393 196l-393 197z
" />
    <glyph glyph-name="K" unicode="K" 
d="M30 550v-500l106 -53l188 93v-90l99 -48v-98l106 -53l499 249v500l-499 250zM144 19v170l170 -85zM903 104l-374 -187l-80 40l374 187zM439 -29v79l376 188v-80zM913 385v-268l-81 41v98l-88 44zM351 104l374 187l80 -40l-374 -187zM341 117v72l71 -36zM511 202l-72 -36
v72zM423 336v-72l-72 36zM537 -177v80l393 196v312l-393 -196v80l475 237v-472zM609 447l-285 -142v-90l-169 85l374 187zM805 545l-178 -89l-90 45v178zM521 679v-178l-377 -188v178zM529 782l472 -237l-472 -236l-80 40l393 196l-313 157l-393 -197l-80 40z" />
    <glyph glyph-name="L" unicode="L" 
d="M30 550v-500l499 -249l499 249v500l-499 250zM155 104l374 187l374 -187l-374 -187zM537 -177v80l393 196v392l82 41v-472zM913 491v-374l-376 188v374zM521 679v-374l-377 -188v374zM529 782l472 -237l-79 -40l-393 197l-393 -197l-80 40z" />
    <glyph glyph-name="M" unicode="M" 
d="M30 550v-500l106 -53l287 143v-286l106 -53l499 249v500l-499 250zM537 -177v472l475 237v-472zM144 19v268l82 -41v-98l88 -44zM155 398l374 187l80 -40l-375 -187zM423 336v-72l-72 36zM324 287v-72l-71 36zM619 452l-376 -188v80l376 188v-80zM635 460v90l-98 50v79
l268 -134zM521 679v-79l-377 -189v80zM412 153l-71 -36v72zM529 782l472 -237l-472 -236l-80 40l393 196l-313 157l-393 -197l-80 40z" />
    <glyph glyph-name="N" unicode="N" 
d="M30 550v-500l106 -53l188 93v-90l99 -48v-98l106 -53l499 249v500l-499 250zM537 -177v472l475 237v-472zM144 19v268l82 -41v-98l88 -44zM155 398l374 187l80 -40l-375 -187zM423 140v-72l-72 36zM341 117v80l82 41v-80zM423 336v-80l-90 -45l-80 40zM619 452l-376 -188
v80l376 188v-80zM635 460v90l-98 50v79l268 -134zM521 679v-79l-377 -189v80zM529 782l472 -237l-472 -236l-80 40l393 196l-313 157l-393 -197l-80 40z" />
    <glyph glyph-name="O" unicode="O" 
d="M412 251l-268 -134v268zM155 104l268 134v-267zM30 550v-500l499 -249l499 249v500l-499 250zM537 -177v472l475 237v-472zM529 782l472 -237l-472 -236l-473 236z" />
    <glyph glyph-name="P" unicode="P" horiz-adv-x="1059" 
d="M235 339l188 -94v-80l-268 135zM216 349l-71 -36v72zM30 550v-501l106 -52l197 97l196 -97l197 97l197 -97l106 52v501l-500 250zM145 188l170 -85l-170 -85v170zM914 188v-170l-170 85zM931 215l-393 -197v276l475 238v-473l-82 -41v197zM529 782l473 -237l-473 -236
l-473 236z" />
    <glyph glyph-name="Q" unicode="Q" 
d="M30 550v-500l196 -98v-98l107 -53l98 49l98 -49l499 249v500l-499 250zM341 -105l71 -36l-71 -36v72zM537 -177v472l475 237v-472zM529 782l472 -237l-472 -236l-473 236zM423 140v-80l-82 -41v80zM351 5l72 36v-70zM423 158l-90 -45l-80 40l170 85v-80zM412 251
l-268 -134v268zM155 104l71 36v-72z" />
    <glyph glyph-name="R" unicode="R" 
d="M234 340l189 -94v-80l-268 134zM216 349l-72 -36v72zM30 550v-500l106 -53l188 93v-90l99 -48v-98l106 -53l499 249v500l-499 250zM449 -43l374 187l80 -40l-374 -187zM913 189v-72l-71 36zM511 5l-72 -34v70zM537 -177v80l393 196v116l-393 -196v276l475 237v-472z
M144 19v170l170 -85zM529 782l472 -237l-472 -236l-473 236z" />
    <glyph glyph-name="S" unicode="S" 
d="M118 202l-88 -44v-108l499 -249l499 249v500l-499 250l-499 -250v-304zM144 313v72l72 -36zM155 300l79 40l295 -147l294 147l80 -40l-374 -187zM913 385v-72l-71 36zM537 -177v276l393 196v116l-393 -196v80l475 237v-472zM136 193l287 -143v-79l-367 182zM529 782
l472 -237l-472 -236l-473 236z" />
    <glyph glyph-name="T" unicode="T" horiz-adv-x="1059" 
d="M30 550v-108l196 -98v-392l107 -54l393 196l197 -97l106 52v501l-500 250zM718 286v-178l-377 -187v365l188 -94zM734 108v186l180 91v-367zM931 411l-393 -196v79l475 238v-473l-82 -41v393zM529 782l473 -237l-473 -236l-473 236z" />
    <glyph glyph-name="U" unicode="U" 
d="M30 550v-500l499 -249l499 249v500l-499 250zM537 411v268l268 -134zM521 679v-276l-98 -49v-98l-279 -139v374zM423 238v-267l-268 133zM537 -177v472l475 237v-472zM529 782l472 -237l-472 -236l-80 40l393 196l-313 157l-393 -197l-80 40z" />
    <glyph glyph-name="V" unicode="V" horiz-adv-x="1059" 
d="M30 550v-305l98 -49v-98l98 -49v-97l107 -54l393 196l197 -97l106 52v501l-500 250zM538 411v268l268 -134zM521 679v-276l-376 -188v276zM243 67v80l180 90v-80zM423 67l-72 36l72 36v-72zM253 54l72 36v-72zM423 335v-80l-188 -94l-80 40zM341 -79v71l72 -35zM439 -30
v71l72 -36zM931 215l-393 -197v276l475 238v-473l-82 -41v197zM914 188v-170l-170 85zM529 782l473 -237l-473 -236l-79 40l393 196l-314 157l-393 -197l-80 40z" />
    <glyph glyph-name="W" unicode="W" 
d="M30 550v-500l106 -53l188 93v-90l99 -48v-98l106 -53l499 249v500l-499 250zM537 411v268l268 -134zM521 679v-276l-377 -188v276zM537 -177v472l475 237v-472zM144 19v71l72 -35zM423 140v-72l-72 36zM341 117v80l82 41v-80zM423 336v-80l-90 -45l-80 40zM226 238v-72
l-71 36zM243 68v72l71 -36zM529 782l472 -237l-472 -236l-80 40l393 196l-313 157l-393 -197l-80 40z" />
    <glyph glyph-name="X" unicode="X" 
d="M216 251l-186 -93v-108l106 -53l188 93v-90l99 -48v-98l106 -53l499 249v500l-499 250l-499 -250v-108l98 -49v-98zM619 452l-376 -188v80l376 188v-80zM155 398l374 187l80 -40l-375 -187zM351 104l374 187l80 -40l-374 -187zM903 104l-374 -187l-80 40l374 187z
M439 -29v79l376 188v-80zM913 385v-268l-81 41v98l-88 44zM341 117v72l71 -36zM511 202l-72 -36v72zM423 336v-72l-72 36zM324 287v-72l-71 36zM128 189v-72l-72 36zM144 19v71l72 -35zM243 68v72l71 -36zM537 -177v80l393 196v312l-393 -196v80l475 237v-472zM635 460v90
l-98 50v79l268 -134zM521 679v-79l-377 -189v80zM226 238v-72l-71 36zM529 782l472 -237l-472 -236l-80 40l393 196l-313 157l-393 -197l-80 40z" />
    <glyph glyph-name="Y" unicode="Y" horiz-adv-x="1059" 
d="M30 550v-305l196 -98v-195l107 -54l393 196l197 -97l106 52v501l-500 250zM609 447l-186 -93v-189l-268 135l374 187zM806 545l-178 -89l-90 45v178zM521 679v-178l-376 -188v178zM341 -79v169l170 -85zM931 215l-393 -197v276l475 238v-473l-82 -41v197zM914 188v-170
l-170 85zM529 782l473 -237l-473 -236l-79 40l393 196l-314 157l-393 -197l-80 40z" />
    <glyph glyph-name="Z" unicode="Z" 
d="M314 300l-284 -142v-108l499 -249l499 249v500l-499 250l-499 -250v-108zM253 55l374 187l276 -138l-374 -187zM913 385v-268l-268 134zM243 68v72l71 -36zM511 202l-72 -36v72zM412 153l-71 -36v72zM226 238v-72l-71 36zM128 189v-72l-72 36zM537 -177v80l393 196v312
l-393 -196v80l475 237v-472zM324 287v-72l-71 36zM529 782l472 -237l-472 -236l-473 236z" />
    <glyph glyph-name="bracketleft" unicode="[" horiz-adv-x="1059" 
d="M128 501v-501l205 -102l393 196l197 -97l106 52v501l-500 250l-106 -53v-98zM931 18v473l82 41v-473zM914 491v-473l-180 90v98l-98 49v187l98 49v90zM718 188v-80l-377 -187v79zM243 67v268l90 -45l287 144v-179zM253 54l375 187l80 -40l-375 -187zM718 581v-80
l-377 -188v80zM439 657v71l72 -35zM155 496l393 197l-99 49l80 40l473 -237l-79 -40l-197 98l-393 -196z" />
    <glyph glyph-name="backslash" unicode="\" 
d="M30 550v-108l98 -49v-98l98 -49v-98l98 -49v-99l99 -48v-98l106 -53l499 249v500l-499 250zM155 398l374 187l80 -40l-375 -187zM619 532v-80l-376 -188v80zM253 251l374 187l80 -40l-374 -187zM717 385v-80l-376 -188v80zM351 104l374 187l80 -40l-374 -187zM903 104
l-374 -187l-80 40l374 187zM439 -29v79l376 188v-80zM537 -177v80l393 196v392l82 41v-472zM913 491v-374l-81 41v98l-99 49v98l-98 49v98l-98 50v79zM521 679v-79l-377 -189v80zM529 782l472 -237l-79 -40l-393 197l-393 -197l-80 40z" />
    <glyph glyph-name="bracketright" unicode="]" horiz-adv-x="1059" 
d="M325 108l-99 -49v-107l205 -103l393 196l99 -48l106 52v501l-500 250l-106 -53v-197l-197 -98v-108l99 -50v-186zM931 18v473l82 41v-473zM914 491v-473l-82 41v473zM816 532v-473l-377 -187v472zM325 90v-72l-72 36zM439 558v170l170 -85zM253 447l393 196l-197 99
l80 40l473 -237l-79 -40l-99 49l-393 -196z" />
    <glyph glyph-name="asciicircum" unicode="^" horiz-adv-x="1059" 
d="M128 403v-109l107 -53l90 45v-90l106 -53l98 49l394 -195l106 52v501l-500 250l-106 -53v-197zM931 18v473l82 41v-473zM914 491v-473l-366 183l284 143v108l-98 49v80zM243 264v71l72 -35zM806 447l-375 -187l-80 40l375 187zM718 581v-80l-377 -188v80zM816 354
l-377 -189v80l377 189v-80zM529 782l473 -237l-79 -40l-197 98l-393 -196l-80 40l393 196l-197 99zM609 643l-170 -85v170zM155 398l71 36v-72z" />
    <glyph glyph-name="underscore" unicode="_" 
d="M30 158v-108l499 -249l499 249v500l-499 250l-106 -53v-393zM537 -177v80l393 196v392l82 41v-472zM913 491v-374l-474 237v375zM56 153l375 187l472 -236l-374 -187zM529 782l472 -237l-79 -40l-473 237z" />
    <glyph glyph-name="grave" unicode="`" horiz-adv-x="1059" 
d="M226 452v-207l107 -53l98 49l492 -244l106 52v501l-500 250l-106 -53v-197zM325 393v-178l-82 40v179zM718 403l-377 -188v178l377 188v-178zM931 18v473l82 41v-473zM914 491v-473l-464 232l284 143v188zM439 558v170l170 -85zM253 447l393 196l-196 99l79 40l473 -237
l-79 -40l-197 98l-393 -196z" />
    <glyph glyph-name="a" unicode="a" 
d="M1028 50v500l-499 250l-499 -250v-500l106 -53l197 98l90 -45v-196l106 -53zM1001 545l-472 -236l-473 236l473 237zM1012 60l-475 -237v472l475 237v-472zM423 166l-268 134l79 40l189 -94v-80zM216 349l-72 -36v72zM314 104l-170 -85v170z" />
    <glyph glyph-name="b" unicode="b" 
d="M30 550v-500l499 -249l499 249v500l-499 250zM144 117v72l72 -36zM155 104l79 40l189 -94v-79zM144 313v72l72 -36zM155 300l79 40l189 -94v-80zM439 140l72 -36l-72 -36v72zM449 55l374 187l80 -40l-374 -187zM913 287v-72l-71 36zM537 -177v177l393 197v116l-393 -196
v178l475 237v-472zM529 782l472 -237l-472 -236l-473 236z" />
    <glyph glyph-name="c" unicode="c" 
d="M30 550v-500l499 -249l499 249v500l-499 250zM144 117v268l268 -134zM155 104l276 138l98 -49l98 49l276 -138l-374 -187zM913 385v-268l-268 134zM537 -177v80l393 196v312l-393 -196v80l475 237v-472zM529 782l472 -237l-472 -236l-473 236z" />
    <glyph glyph-name="d" unicode="d" horiz-adv-x="1059" 
d="M30 550v-501l401 -200l393 196l99 -48l106 52v501l-500 250zM145 116v269l268 -135zM155 103l268 134v-267zM439 -128v71l72 -36zM904 398l-375 -188l-79 40l374 188zM914 491v-80l-82 41v80zM816 532v-80l-377 -188v80zM931 116l-393 -195v275l393 197v98l82 41v-473
l-82 -41v98zM914 90v-72l-71 36zM529 782l473 -237l-79 -40l-99 49l-393 -196l-375 187z" />
    <glyph glyph-name="e" unicode="e" 
d="M30 550v-500l499 -249l499 249v500l-499 250zM144 117v72l72 -36zM155 104l79 40l99 -49l294 147l276 -138l-374 -187zM144 313v72l72 -36zM155 300l79 40l178 -89l-79 -40zM341 117v80l90 45l80 -40zM913 385v-268l-268 134zM537 -177v80l393 196v312l-393 -196v80
l475 237v-472zM529 782l472 -237l-472 -236l-473 236z" />
    <glyph glyph-name="f" unicode="f" horiz-adv-x="1059" 
d="M30 550v-501l106 -52l393 195l394 -195l106 52v501l-500 250zM914 385v-367l-366 183zM931 411l-393 -196v79l475 238v-473l-82 -41v393zM145 18v170l170 -85zM413 250l-80 -40l-178 90l80 39zM145 313v72l71 -36zM511 201l-170 -85v80l90 45zM529 782l473 -237
l-473 -236l-473 236z" />
    <glyph glyph-name="g" unicode="g" 
d="M30 550v-500l499 -249l499 249v500l-499 250zM423 50v-79l-268 133l79 40zM144 117v268l170 -85l-88 -44v-98zM253 251l80 40l196 -98l294 147l80 -40l-374 -187zM913 385v-72l-71 36zM537 -177v276l393 196v116l-393 -196v80l475 237v-472zM529 782l472 -237l-472 -236
l-473 236z" />
    <glyph glyph-name="h" unicode="h" 
d="M30 550v-500l106 -53l197 98l90 -45v-196l106 -53l499 249v500l-499 250zM144 189l170 -85l-170 -85v170zM609 447l-186 -93v-188l-268 134l374 187zM805 545l-178 -89l-90 45v178zM521 679v-178l-377 -188v178zM537 -177v472l475 237v-472zM529 782l472 -237l-472 -236
l-80 40l393 196l-313 157l-393 -197l-80 40z" />
    <glyph glyph-name="i" unicode="i" horiz-adv-x="1059" 
d="M226 452v-500l107 -54l393 196l197 -97l106 52v501l-500 250l-106 -53v-197zM931 18v473l82 41v-473zM914 491v-473l-180 90v473zM718 581v-473l-377 -187v472zM439 558v170l170 -85zM253 447l393 196l-196 99l79 40l473 -237l-79 -40l-197 98l-393 -196z" />
    <glyph glyph-name="j" unicode="j" 
d="M30 256v-206l499 -249l499 249v500l-499 250l-106 -53v-295zM805 545l-276 -138l-90 45v277zM56 251l375 187l80 -40l-375 -187zM537 -177v472l475 237v-472zM423 238v-267l-268 133zM423 336v-80l-279 -139v80zM529 782l472 -237l-472 -236l-80 40l393 196l-393 197z
" />
    <glyph glyph-name="k" unicode="k" 
d="M30 550v-500l106 -53l188 93v-90l99 -48v-98l106 -53l499 249v500l-499 250zM144 19v170l170 -85zM903 104l-374 -187l-80 40l374 187zM439 -29v79l376 188v-80zM913 385v-268l-81 41v98l-88 44zM351 104l374 187l80 -40l-374 -187zM341 117v72l71 -36zM511 202l-72 -36
v72zM423 336v-72l-72 36zM537 -177v80l393 196v312l-393 -196v80l475 237v-472zM609 447l-285 -142v-90l-169 85l374 187zM805 545l-178 -89l-90 45v178zM521 679v-178l-377 -188v178zM529 782l472 -237l-472 -236l-80 40l393 196l-313 157l-393 -197l-80 40z" />
    <glyph glyph-name="l" unicode="l" 
d="M30 550v-500l499 -249l499 249v500l-499 250zM155 104l374 187l374 -187l-374 -187zM537 -177v80l393 196v392l82 41v-472zM913 491v-374l-376 188v374zM521 679v-374l-377 -188v374zM529 782l472 -237l-79 -40l-393 197l-393 -197l-80 40z" />
    <glyph glyph-name="m" unicode="m" 
d="M30 550v-500l106 -53l90 44v-89l107 -53l90 45v-90l106 -53l499 249v500l-499 250zM537 -177v472l475 237v-472zM423 246v-284l-82 -40v365zM226 344v-284l-82 -41v366zM529 782l472 -237l-472 -236l-473 236z" />
    <glyph glyph-name="n" unicode="n" 
d="M30 550v-500l106 -53l287 143v-286l106 -53l499 249v500l-499 250zM537 -177v472l475 237v-472zM423 246v-88l-279 -139v366zM529 782l472 -237l-472 -236l-473 236z" />
    <glyph glyph-name="o" unicode="o" 
d="M412 251l-268 -134v268zM155 104l268 134v-267zM30 550v-500l499 -249l499 249v500l-499 250zM537 -177v472l475 237v-472zM529 782l472 -237l-472 -236l-473 236z" />
    <glyph glyph-name="p" unicode="p" horiz-adv-x="1059" 
d="M30 550v-501l106 -52l197 97l196 -97l197 97l197 -97l106 52v501l-500 250zM145 188l170 -85l-170 -85v170zM904 398l-375 -188l-79 40l374 188zM145 313v72l71 -36zM155 300l80 39l188 -94v-80zM914 491v-80l-82 41v80zM816 532v-80l-377 -188v80zM931 215l-393 -197
v178l393 197v98l82 41v-473l-82 -41v197zM914 188v-170l-170 85zM529 782l473 -237l-79 -40l-99 49l-393 -196l-375 187z" />
    <glyph glyph-name="q" unicode="q" 
d="M30 550v-500l196 -98v-98l107 -53l98 49l98 -49l499 249v500l-499 250zM341 -105l71 -36l-71 -36v72zM537 -177v472l475 237v-472zM529 782l472 -237l-472 -236l-473 236zM423 140v-80l-82 -41v80zM351 5l72 36v-70zM423 158l-90 -45l-80 40l170 85v-80zM412 251
l-268 -134v268zM155 104l71 36v-72z" />
    <glyph glyph-name="r" unicode="r" 
d="M234 340l189 -94v-80l-268 134zM216 349l-72 -36v72zM30 550v-500l106 -53l188 93v-90l99 -48v-98l106 -53l499 249v500l-499 250zM449 -43l374 187l80 -40l-374 -187zM913 189v-72l-71 36zM511 5l-72 -34v70zM537 -177v80l393 196v116l-393 -196v276l475 237v-472z
M144 19v170l170 -85zM529 782l472 -237l-472 -236l-473 236z" />
    <glyph glyph-name="s" unicode="s" 
d="M118 202l-88 -44v-108l499 -249l499 249v500l-499 250l-499 -250v-304zM144 313v72l72 -36zM155 300l79 40l295 -147l294 147l80 -40l-374 -187zM913 385v-72l-71 36zM537 -177v276l393 196v116l-393 -196v80l475 237v-472zM136 193l287 -143v-79l-367 182zM529 782
l472 -237l-472 -236l-473 236z" />
    <glyph glyph-name="t" unicode="t" horiz-adv-x="1059" 
d="M30 550v-108l196 -98v-392l107 -54l393 196l197 -97l106 52v501l-500 250zM718 286v-178l-377 -187v365l188 -94zM734 108v186l180 91v-367zM931 411l-393 -196v79l475 238v-473l-82 -41v393zM529 782l473 -237l-473 -236l-473 236z" />
    <glyph glyph-name="u" unicode="u" 
d="M30 550v-500l499 -249l499 249v500l-499 250zM537 411v268l268 -134zM521 679v-276l-98 -49v-98l-279 -139v374zM423 238v-267l-268 133zM537 -177v472l475 237v-472zM529 782l472 -237l-472 -236l-80 40l393 196l-313 157l-393 -197l-80 40z" />
    <glyph glyph-name="v" unicode="v" horiz-adv-x="1059" 
d="M30 550v-305l98 -49v-98l98 -49v-97l107 -54l393 196l197 -97l106 52v501l-500 250zM538 411v268l268 -134zM521 679v-276l-376 -188v276zM243 67v80l180 90v-80zM423 67l-72 36l72 36v-72zM253 54l72 36v-72zM423 335v-80l-188 -94l-80 40zM341 -79v71l72 -35zM439 -30
v71l72 -36zM931 215l-393 -197v276l475 238v-473l-82 -41v197zM914 188v-170l-170 85zM529 782l473 -237l-473 -236l-79 40l393 196l-314 157l-393 -197l-80 40z" />
    <glyph glyph-name="w" unicode="w" 
d="M30 550v-500l106 -53l188 93v-90l99 -48v-98l106 -53l499 249v500l-499 250zM537 411v268l268 -134zM521 679v-276l-377 -188v276zM537 -177v472l475 237v-472zM144 19v71l72 -35zM423 140v-72l-72 36zM341 117v80l82 41v-80zM423 336v-80l-90 -45l-80 40zM226 238v-72
l-71 36zM243 68v72l71 -36zM529 782l472 -237l-472 -236l-80 40l393 196l-313 157l-393 -197l-80 40z" />
    <glyph glyph-name="x" unicode="x" 
d="M216 251l-186 -93v-108l106 -53l188 93v-90l99 -48v-98l106 -53l499 249v500l-499 250l-499 -250v-108l98 -49v-98zM619 452l-376 -188v80l376 188v-80zM155 398l374 187l80 -40l-375 -187zM351 104l374 187l80 -40l-374 -187zM903 104l-374 -187l-80 40l374 187z
M439 -29v79l376 188v-80zM913 385v-268l-81 41v98l-88 44zM341 117v72l71 -36zM511 202l-72 -36v72zM423 336v-72l-72 36zM324 287v-72l-71 36zM128 189v-72l-72 36zM144 19v71l72 -35zM243 68v72l71 -36zM537 -177v80l393 196v312l-393 -196v80l475 237v-472zM635 460v90
l-98 50v79l268 -134zM521 679v-79l-377 -189v80zM226 238v-72l-71 36zM529 782l472 -237l-472 -236l-80 40l393 196l-313 157l-393 -197l-80 40z" />
    <glyph glyph-name="y" unicode="y" horiz-adv-x="1059" 
d="M30 550v-108l98 -49v-99l98 -49v-293l107 -54l393 196l197 -97l106 52v501l-500 250zM620 452l-377 -188v80l377 188v-80zM718 286v-178l-377 -187v267l90 -45zM155 398l374 187l80 -40l-374 -187zM439 165v72l72 -36zM423 335v-71l-72 36zM325 286v-71l-72 35zM734 108
v186l180 91v-367zM931 411l-393 -196v79l475 238v-473l-82 -41v393zM636 460v90l-98 49v80l268 -134zM521 679v-80l-376 -188v80zM529 782l473 -237l-473 -236l-79 40l393 196l-314 157l-393 -197l-80 40z" />
    <glyph glyph-name="z" unicode="z" 
d="M314 300l-284 -142v-108l499 -249l499 249v500l-499 250l-499 -250v-108zM253 55l374 187l276 -138l-374 -187zM913 385v-268l-268 134zM243 68v72l71 -36zM511 202l-72 -36v72zM412 153l-71 -36v72zM226 238v-72l-71 36zM128 189v-72l-72 36zM537 -177v80l393 196v312
l-393 -196v80l475 237v-472zM324 287v-72l-71 36zM529 782l472 -237l-472 -236l-473 236z" />
    <glyph glyph-name="braceleft" unicode="{" horiz-adv-x="1059" 
d="M30 354v-109l98 -49v-196l205 -102l393 196l197 -97l106 52v501l-500 250l-106 -53v-98l-295 -148v-98zM931 18v473l82 41v-473zM914 491v-473l-180 90v98l-98 49v187l98 49v90zM718 188v-80l-377 -187v79zM243 67v268l90 -45l287 144v-179zM253 54l375 187l80 -40
l-375 -187zM718 581v-80l-377 -188v80zM128 385v-72l-72 36zM439 657v71l72 -35zM155 496l393 197l-99 49l80 40l473 -237l-79 -40l-197 98l-393 -196z" />
    <glyph glyph-name="bar" unicode="|" 
d="M226 550v-696l107 -53l490 244l99 -48l106 53v500l-196 99v98l-107 53l-98 -49l-98 49l-106 -53v-98zM930 19v472l82 41v-472zM1001 545l-79 -40l-178 90l79 39zM815 729v-80l-98 -49v-501l88 -44l-464 -232v668zM913 19l-180 90v472l180 -90v-472zM529 782l80 -40
l-80 -40l-80 40zM439 729l72 -36l-72 -36v72zM253 545l472 237l80 -40l-472 -237z" />
    <glyph glyph-name="braceright" unicode="}" 
d="M226 60l-98 -49v-108l205 -102l490 244l99 -48l106 53v500l-499 250l-106 -53v-197l-295 -147v-108l98 -49v-186zM815 140v-80l-474 -237v170l90 -45zM351 104l472 236l80 -40l-472 -236zM832 60v88l81 41v-170zM930 215l-491 -244v79l491 245v196l82 41v-472l-82 -41
v196zM913 491v-178l-81 41v178zM815 532v-178l-474 -237v178zM226 41v-70l-71 34zM439 559v170l170 -85zM155 398l490 246l-196 98l80 40l472 -237l-79 -40l-99 50l-490 -246z" />
    <glyph glyph-name="asciitilde" unicode="~" horiz-adv-x="1059" 
d="M30 452v-207l106 -53l90 45v-188l303 -151l295 147l99 -48l106 52v501l-500 250l-106 -53v-98zM145 215v71l71 -36zM718 483v-178l-377 -189v178zM423 67l-72 36l72 36v-72zM904 300l-375 -188l-80 40l375 187zM914 491v-178l-90 45l-90 -45v188l-295 148v79zM56 447
l375 187l277 -138l-375 -187zM931 116l-393 -195v177l393 196v197l82 41v-473l-82 -41v98zM914 90v-72l-71 36zM529 782l473 -237l-79 -40l-474 237z" />
    <glyph glyph-name="AE" unicode="&#xc6;" 
d="M216 349l-72 -36v72zM155 300l71 36v-72zM30 550v-500l106 -53l90 44v-89l303 -151l499 249v500l-499 250zM341 19v71l71 -35zM351 5l80 40l98 -48l294 147l80 -40l-374 -187zM341 215v72l71 -36zM351 202l80 40l98 -49l294 147l80 -40l-374 -187zM913 385v-72l-71 36z
M913 189v-72l-71 36zM537 -177v80l393 196v116l-393 -196v80l393 196v116l-393 -196v80l475 237v-472zM226 148v-88l-82 -41v170zM529 782l472 -237l-472 -236l-473 236z" />
    <glyph glyph-name="ae" unicode="&#xe6;" 
d="M216 349l-72 -36v72zM155 300l71 36v-72zM30 550v-500l106 -53l90 44v-89l303 -151l499 249v500l-499 250zM341 19v71l71 -35zM351 5l80 40l98 -48l294 147l80 -40l-374 -187zM341 215v72l71 -36zM351 202l80 40l98 -49l294 147l80 -40l-374 -187zM913 385v-72l-71 36z
M913 189v-72l-71 36zM537 -177v80l393 196v116l-393 -196v80l393 196v116l-393 -196v80l475 237v-472zM226 148v-88l-82 -41v170zM529 782l472 -237l-472 -236l-473 236z" />
    <glyph glyph-name="nonbreakingspace" unicode="&#xe001;" horiz-adv-x="333" 
 />
    <glyph glyph-name="u.nul" unicode="&#xe002;" horiz-adv-x="0" 
 />
    </font>
</defs>
</svg>
